<?xml version="1.0" encoding="UTF-8" standalone="no"?><!DOCTYPE svg PUBLIC "-//W3C//DTD SVG 1.1//EN" "http://www.w3.org/Graphics/SVG/1.1/DTD/svg11.dtd"><svg width="100%" height="100%" viewBox="0 0 1000 1000" version="1.1" xmlns="http://www.w3.org/2000/svg" xmlns:xlink="http://www.w3.org/1999/xlink" xml:space="preserve" xmlns:serif="http://www.serif.com/" style="fill-rule:evenodd;clip-rule:evenodd;stroke-linejoin:round;stroke-miterlimit:2;"><rect id="LogoMark" x="0" y="0" width="1000" height="1000" style="fill:none;"/><clipPath id="_clip1"><rect x="0" y="0" width="1000" height="1000"/></clipPath><g clip-path="url(#_clip1)"><path d="M895.939,847.081c-28.765,0 -53.299,-9.941 -73.604,-29.822c-20.305,-19.882 -30.457,-45.051 -30.457,-75.508c0,-32.149 10.152,-57.741 30.457,-76.777c20.305,-19.036 44.839,-28.553 73.604,-28.553c28.765,0 53.299,9.518 73.604,28.553c20.305,19.036 30.457,44.628 30.457,76.777c0,30.457 -10.152,55.626 -30.457,75.508c-20.305,19.882 -44.839,29.822 -73.604,29.822Z" style="fill:#ffa400;"/><path d="M895.939,847.081c-28.765,0 -53.299,-9.941 -73.604,-29.822c-20.305,-19.882 -30.457,-45.051 -30.457,-75.508c0,-32.149 10.152,-57.741 30.457,-76.777c20.305,-19.036 44.839,-28.553 73.604,-28.553c28.765,0 53.299,9.518 73.604,28.553c20.305,19.036 30.457,44.628 30.457,76.777c0,30.457 -10.152,55.626 -30.457,75.508c-20.305,19.882 -44.839,29.822 -73.604,29.822Z" style="fill:none;"/><path d="M158.641,550.127c4.338,23.421 12.371,44.995 24.1,64.721c18.613,31.303 44.839,55.415 78.68,72.335c33.841,16.92 72.758,25.381 116.751,25.381c38.071,0 72.335,-5.922 102.792,-17.766c30.457,-11.844 57.53,-30.457 81.218,-55.838l85.025,97.716c-30.457,35.533 -68.739,62.817 -114.848,81.853c-46.108,19.036 -98.773,28.553 -157.995,28.553c-75.296,0 -141.074,-15.017 -197.335,-45.051c-56.261,-30.034 -99.831,-71.277 -130.711,-123.731c-30.88,-52.453 -46.32,-112.098 -46.32,-178.934c0,-67.682 15.017,-127.538 45.051,-179.569c30.034,-52.03 71.489,-92.851 124.365,-122.462c52.876,-29.611 113.156,-44.416 180.838,-44.416c65.99,0 124.788,14.382 176.396,43.147c51.607,28.765 92.217,69.374 121.827,121.827c29.611,52.453 44.416,114.213 44.416,185.279c0,6.768 -0.212,14.382 -0.635,22.843c-0.423,8.46 -1.058,16.497 -1.904,24.112l-531.714,0Zm-1.363,-105.33l385.596,0c-3.081,-25.592 -10.604,-48.858 -22.569,-69.797c-16.92,-29.611 -39.975,-52.876 -69.162,-69.797c-29.188,-16.92 -62.817,-25.381 -100.888,-25.381c-38.917,0 -72.97,8.46 -102.157,25.381c-29.188,16.92 -52.03,40.398 -68.528,70.431c-11.301,20.573 -18.731,43.627 -22.291,69.162Z" style="fill:#071108;"/></g></svg>